<?xml version="1.0" encoding="UTF-8" standalone="no"?>
<!-- Created with Inkscape (http://www.inkscape.org/) -->

<svg
   xmlns:dc="http://purl.org/dc/elements/1.1/"
   xmlns:cc="http://creativecommons.org/ns#"
   xmlns:rdf="http://www.w3.org/1999/02/22-rdf-syntax-ns#"
   xmlns:svg="http://www.w3.org/2000/svg"
   xmlns="http://www.w3.org/2000/svg"
   xmlns:sodipodi="http://sodipodi.sourceforge.net/DTD/sodipodi-0.dtd"
   xmlns:inkscape="http://www.inkscape.org/namespaces/inkscape"
   width="210mm"
   height="297mm"
   viewBox="0 0 744.09448819 1052.3622047"
   id="svg2"
   version="1.1"
   inkscape:version="0.91 r13725"
   sodipodi:docname="iceCream2.svg">
  <defs
     id="defs4" />
  <sodipodi:namedview
     id="base"
     pagecolor="#ffffff"
     bordercolor="#666666"
     borderopacity="1.0"
     inkscape:pageopacity="0.0"
     inkscape:pageshadow="2"
     inkscape:zoom="0.70755122"
     inkscape:cx="315.95325"
     inkscape:cy="610.81976"
     inkscape:document-units="px"
     inkscape:current-layer="layer3"
     showgrid="false"
     inkscape:window-width="1281"
     inkscape:window-height="647"
     inkscape:window-x="4"
     inkscape:window-y="16"
     inkscape:window-maximized="1" />
  <metadata
     id="metadata7">
    <rdf:RDF>
      <cc:Work
         rdf:about="">
        <dc:format>image/svg+xml</dc:format>
        <dc:type
           rdf:resource="http://purl.org/dc/dcmitype/StillImage" />
        <dc:title></dc:title>
      </cc:Work>
    </rdf:RDF>
  </metadata>
  <g
     inkscape:label="Layer 1"
     inkscape:groupmode="layer"
     id="layer1"
     style="display:inline" />
  <g
     inkscape:groupmode="layer"
     id="layer3"
     inkscape:label="Layer 3"
     style="display:inline">
    <path
       id="path4223-9-6-5"
       style="opacity:1;fill:#ae6b4f;fill-opacity:1;stroke:none;stroke-width:14.69999981;stroke-miterlimit:4;stroke-dasharray:none;stroke-opacity:1"
       d="m 559.70775,394.35593 a 185.88316,170.6501 0 0 1 -185.88317,170.6501 185.88316,170.6501 0 0 1 -185.88316,-170.6501 185.88316,170.6501 0 0 1 185.88316,-170.6501 185.88316,170.6501 0 0 1 185.88317,170.6501 z m -250.82757,99.5462 a 100.94009,85.347687 0 0 1 -100.94009,85.34769 100.94009,85.347687 0 0 1 -100.94008,-85.34769 100.94009,85.347687 0 0 1 100.94008,-85.34769 100.94009,85.347687 0 0 1 100.94009,85.34769 z m 0.008,13.63336 a 100.94009,94.826706 0 0 1 -100.94008,94.82671 100.94009,94.826706 0 0 1 -100.94009,-94.82671 100.94009,94.826706 0 0 1 100.94009,-94.8267 100.94009,94.826706 0 0 1 100.94008,94.8267 z m 334.78122,-15.75335 a 100.94009,83.227699 0 0 1 -100.94008,83.22769 100.94009,83.227699 0 0 1 -100.94009,-83.22769 100.94009,83.227699 0 0 1 100.94009,-83.2277 100.94009,83.227699 0 0 1 100.94008,83.2277 z M 559.72319,412.51675 A 185.88316,180.88631 0 0 1 373.84003,593.40306 185.88316,180.88631 0 0 1 187.95686,412.51675 185.88316,180.88631 0 0 1 373.84003,231.63045 185.88316,180.88631 0 0 1 559.72319,412.51675 Z m 83.95493,95.01874 a 100.94009,94.826706 0 0 1 -100.94008,94.82671 100.94009,94.826706 0 0 1 -100.94009,-94.82671 100.94009,94.826706 0 0 1 100.94009,-94.8267 100.94009,94.826706 0 0 1 100.94008,94.8267 z" />
  </g>
  <g
     inkscape:groupmode="layer"
     id="layer2"
     inkscape:label="Layer 2"
     style="display:inline" />
</svg>
